<svg  width="600" height="600" xmlns="http://www.w3.org/2000/svg" ><path  d="
 M 268 164 C 294 166, 323, 161, 347, 168
 C 369 185, 388, 199, 412, 208
 C 416 219, 414, 228, 416, 237
 C 420 245, 430, 248, 429, 257
 C 435 281, 429, 304, 432, 328
 C 430 341, 425, 351, 415, 356
 C 413 367, 413, 376, 412, 385
 C 382 398, 360, 417, 333, 430
 C 309 431, 284, 433, 262, 430
 C 248 414, 227, 418, 216, 401
 C 209 396, 200, 397, 193, 394
 C 178 377, 188, 353, 166, 342
 C 162 319, 166, 295, 164, 274
 C 166 259, 171, 249, 181, 241
 C 184 230, 182, 220, 185, 211
 C 216 200, 237, 174, 266, 165" fill="rgb(119,148,144)" />
<path  d="
 M 269 165 C 238 172, 218, 201, 187, 208
 C 183 220, 185, 230, 182, 238
 C 172 249, 167, 259, 166, 271
 C 167 295, 163, 319, 169, 338
 C 188 353, 181, 376, 190, 392
 C 200 396, 209, 395, 216, 398
 C 226 417, 249, 413, 259, 430
 C 284 432, 309, 430, 331, 430
 C 360 416, 381, 397, 410, 388
 C 412 376, 412, 367, 414, 359
 C 424 350, 429, 341, 429, 329
 C 428 304, 434, 281, 430, 258
 C 429 248, 419, 246, 416, 239
 C 413 228, 415, 219, 412, 211
 C 387 200, 369, 185, 348, 171
 C 324 162, 296, 167, 272, 165" fill="rgb(119,148,144)" />
<path  d="
 M 273 188 C 295 190, 319, 185, 339, 192
 C 358 207, 372, 214, 386, 232
 C 389 246, 402, 254, 408, 266
 C 409 291, 412, 316, 407, 338
 C 395 357, 384, 374, 367, 388
 C 354 392, 344, 400, 335, 409
 C 310 411, 286, 411, 264, 408
 C 244 391, 225, 384, 212, 364
 C 209 350, 196, 340, 190, 329
 C 189 308, 187, 290, 190, 272
 C 195 257, 209, 249, 208, 234
 C 218 226, 227, 221, 230, 210
 C 249 210, 255, 189, 271, 189" fill="rgb(112,139,126)" />
<path  d="
 M 275 190 C 257 187, 250, 211, 232, 210
 C 228 221, 218, 227, 210, 232
 C 210 249, 196, 257, 191, 269
 C 188 290, 190, 308, 191, 326
 C 197 340, 210, 350, 210, 364
 C 226 383, 245, 390, 264, 403
 C 286 410, 310, 410, 333, 409
 C 343 399, 354, 391, 367, 389
 C 383 373, 394, 357, 404, 339
 C 411 316, 408, 291, 407, 269
 C 401 254, 388, 246, 387, 232
 C 371 214, 358, 208, 340, 195
 C 320 186, 297, 191, 277, 189" fill="rgb(112,139,125)" />
<path  d="
 M 279 220 C 296 220, 316, 218, 331, 222
 C 350 235, 363, 248, 375, 264
 C 382 286, 380, 310, 375, 329
 C 362 348, 348, 362, 331, 374
 C 308 378, 285, 380, 264, 375
 C 247 362, 235, 350, 223, 334
 C 217 312, 217, 286, 222, 265
 C 238 246, 253, 224, 277, 220" fill="rgb(161,159,110)" />
<path  d="
 M 281 221 C 254 222, 240, 246, 224, 263
 C 218 286, 218, 312, 223, 333
 C 235 349, 248, 362, 263, 372
 C 285 379, 308, 377, 329, 374
 C 347 362, 361, 348, 373, 331
 C 379 310, 381, 286, 375, 265
 C 362 248, 350, 236, 333, 224
 C 317 219, 299, 221, 283, 220" fill="rgb(162,160,110)" />
<path  d="
 M 284 265 C 300 264, 317, 264, 331, 269
 C 330 294, 334, 312, 330, 331
 C 309 334, 286, 333, 268, 329
 C 270 307, 253, 267, 282, 264" fill="rgb(104,155,174)" />
<path  d="
 M 286 266 C 253 264, 271, 307, 268, 325
 C 287 331, 309, 333, 327, 330
 C 333 312, 329, 294, 331, 271
 C 316 266, 302, 265, 287, 266" fill="rgb(105,156,176)" />
<path  d="
 M 288 275 C 294 274, 301, 275, 307, 274
 C 314 276, 317, 279, 321, 281
 C 327 290, 324, 299, 325, 307
 C 322 313, 320, 316, 318, 319
 C 309 326, 298, 323, 289, 324
 C 283 323, 280, 320, 277, 318
 C 270 308, 276, 299, 274, 290
 C 277 282, 282, 277, 287, 276" fill="rgb(130,173,192)" />
<path  d="
 M 290 276 C 284 277, 278, 281, 276, 288
 C 277 299, 271, 308, 278, 316
 C 281 319, 283, 322, 287, 321
 C 298 322, 309, 325, 315, 318
 C 320 315, 322, 312, 323, 310
 C 323 299, 326, 290, 321, 283
 C 316 280, 313, 277, 310, 276
 C 302 276, 297, 276, 292, 276" fill="rgb(133,175,194)" /></svg>