<svg width="100" height="100" viewBox="0 0 100 100" fill="none" xmlns="http://www.w3.org/2000/svg">
<g filter="url(#filter0_d_7_7)">
<path d="M20.6914 73V34.9521H34.9561C37.3994 34.9521 39.5264 35.4268 41.3369 36.376C43.165 37.3076 44.5801 38.626 45.582 40.3311C46.584 42.0186 47.085 44.0049 47.085 46.29V46.3428C47.085 48.9795 46.3994 51.2646 45.0283 53.1982C43.6748 55.1143 41.8115 56.4502 39.4385 57.2061L48.2451 73H42.6816L34.5342 57.9443C34.4814 57.9443 34.4287 57.9443 34.376 57.9443C34.3408 57.9443 34.2969 57.9443 34.2441 57.9443H25.4375V73H20.6914ZM25.4375 53.752H34.5342C36.9775 53.752 38.8584 53.1191 40.1768 51.8535C41.5127 50.5879 42.1807 48.7861 42.1807 46.4482V46.3955C42.1807 44.1279 41.4775 42.3613 40.0713 41.0957C38.6826 39.8125 36.7666 39.1709 34.3232 39.1709H25.4375V53.752Z" fill="#4A5565"/>
</g>
<path d="M65.709 73.5273C63.5645 73.5273 61.71 73.1846 60.1455 72.499C58.5811 71.8135 57.3418 70.8555 56.4277 69.625C55.5312 68.3945 54.9863 66.9619 54.793 65.3271L54.7666 65.0898H59.3545L59.4072 65.3535C59.6885 66.7246 60.3477 67.7969 61.3848 68.5703C62.4219 69.3262 63.8721 69.7041 65.7354 69.7041C66.9834 69.7041 68.0469 69.5459 68.9258 69.2295C69.8047 68.8955 70.4814 68.4297 70.9561 67.832C71.4307 67.2168 71.668 66.4961 71.668 65.6699V65.6436C71.668 64.6592 71.3691 63.8682 70.7715 63.2705C70.1738 62.6729 69.0928 62.1807 67.5283 61.7939L63.1777 60.7393C61.4551 60.3174 60.0225 59.7725 58.8799 59.1045C57.7549 58.4189 56.9111 57.584 56.3486 56.5996C55.7861 55.6152 55.5049 54.4639 55.5049 53.1455V53.1191C55.5049 51.5371 55.9268 50.1396 56.7705 48.9268C57.6318 47.7139 58.8184 46.7646 60.3301 46.0791C61.8594 45.3936 63.6084 45.0508 65.5771 45.0508C67.5811 45.0508 69.3213 45.4111 70.7979 46.1318C72.292 46.835 73.4609 47.8018 74.3047 49.0322C75.166 50.2451 75.6494 51.6162 75.7549 53.1455L75.7812 53.4883H71.4043L71.3779 53.3037C71.2021 51.9678 70.6133 50.8955 69.6113 50.0869C68.627 49.2783 67.2822 48.874 65.5771 48.874C64.4697 48.874 63.5117 49.041 62.7031 49.375C61.8945 49.709 61.2705 50.1836 60.8311 50.7988C60.4092 51.3965 60.1982 52.0996 60.1982 52.9082V52.9346C60.1982 53.5498 60.3389 54.1123 60.6201 54.6221C60.9189 55.1143 61.3848 55.5449 62.0176 55.9141C62.6504 56.2832 63.4678 56.5908 64.4697 56.8369L68.8203 57.8916C71.5977 58.5596 73.5488 59.4824 74.6738 60.6602C75.7988 61.8203 76.3613 63.376 76.3613 65.3271V65.3535C76.3613 66.9531 75.8955 68.3682 74.9639 69.5986C74.0498 70.8291 72.7842 71.7959 71.167 72.499C69.5674 73.1846 67.748 73.5273 65.709 73.5273Z" fill="#4A5565"/>
<defs>
<filter id="filter0_d_7_7" x="20.6914" y="33.9521" width="32.5537" height="40.0479" filterUnits="userSpaceOnUse" color-interpolation-filters="sRGB">
<feFlood flood-opacity="0" result="BackgroundImageFix"/>
<feColorMatrix in="SourceAlpha" type="matrix" values="0 0 0 0 0 0 0 0 0 0 0 0 0 0 0 0 0 0 127 0" result="hardAlpha"/>
<feOffset dx="4"/>
<feGaussianBlur stdDeviation="0.5"/>
<feComposite in2="hardAlpha" operator="out"/>
<feColorMatrix type="matrix" values="0 0 0 0 0.556731 0 0 0 0 0.104387 0 0 0 0 0.526575 0 0 0 1 0"/>
<feBlend mode="normal" in2="BackgroundImageFix" result="effect1_dropShadow_7_7"/>
<feBlend mode="normal" in="SourceGraphic" in2="effect1_dropShadow_7_7" result="shape"/>
</filter>
</defs>
</svg>
