<svg width="100" height="22" viewBox="0 0 100 22" fill="none" xmlns="http://www.w3.org/2000/svg">
<path d="M1.59961 17.5V4.81738H6.44238C7.25684 4.81738 7.96582 4.97559 8.56934 5.29199C9.17871 5.60254 9.65039 6.03906 9.98438 6.60156C10.3184 7.16406 10.4854 7.82617 10.4854 8.58789V8.60547C10.4854 9.48438 10.2598 10.2461 9.80859 10.8906C9.35742 11.5352 8.7334 11.9834 7.93652 12.2354L10.8721 17.5H9.01758L6.30176 12.4814C6.29004 12.4814 6.27539 12.4814 6.25781 12.4814C6.24023 12.4814 6.22559 12.4814 6.21387 12.4814H3.18164V17.5H1.59961ZM3.18164 11.0752H6.30176C7.11621 11.0752 7.74316 10.8672 8.18262 10.4512C8.62793 10.0293 8.85059 9.43164 8.85059 8.6582V8.64062C8.85059 7.88477 8.61914 7.29297 8.15625 6.86523C7.69336 6.4375 7.05176 6.22363 6.23145 6.22363H3.18164V11.0752ZM16.7695 17.667C15.8789 17.667 15.1055 17.4707 14.4492 17.0781C13.7988 16.6797 13.2949 16.1143 12.9375 15.3818C12.5859 14.6494 12.4102 13.7822 12.4102 12.7803V12.7627C12.4102 11.749 12.5859 10.8789 12.9375 10.1523C13.2949 9.41992 13.7988 8.85742 14.4492 8.46484C15.1055 8.07227 15.8789 7.87598 16.7695 7.87598C17.6719 7.87598 18.4482 8.07227 19.0986 8.46484C19.749 8.85742 20.25 9.41992 20.6016 10.1523C20.959 10.8789 21.1377 11.749 21.1377 12.7627V12.7803C21.1377 13.7881 20.959 14.6582 20.6016 15.3906C20.25 16.1172 19.749 16.6797 19.0986 17.0781C18.4482 17.4707 17.6719 17.667 16.7695 17.667ZM16.7695 16.3135C17.3672 16.3135 17.874 16.1729 18.29 15.8916C18.7061 15.6104 19.0225 15.209 19.2393 14.6875C19.4619 14.1602 19.5732 13.5244 19.5732 12.7803V12.7627C19.5732 12.0127 19.4619 11.374 19.2393 10.8467C19.0225 10.3193 18.7061 9.91797 18.29 9.64258C17.874 9.36719 17.3672 9.22949 16.7695 9.22949C16.1777 9.22949 15.6738 9.36719 15.2578 9.64258C14.8418 9.91797 14.5225 10.3193 14.2998 10.8467C14.083 11.374 13.9746 12.0127 13.9746 12.7627V12.7803C13.9746 13.5244 14.083 14.1602 14.2998 14.6875C14.5225 15.209 14.8418 15.6104 15.2578 15.8916C15.6738 16.1729 16.1777 16.3135 16.7695 16.3135ZM27.3691 20.8398C26.6074 20.8398 25.9424 20.7314 25.374 20.5146C24.8057 20.3037 24.3516 20.002 24.0117 19.6094C23.6777 19.2227 23.4697 18.7715 23.3877 18.2559L23.3965 18.2471H24.9785L24.9873 18.2559C25.0752 18.6133 25.3242 18.9062 25.7344 19.1348C26.1445 19.3691 26.6895 19.4863 27.3691 19.4863C28.2129 19.4863 28.8721 19.293 29.3467 18.9062C29.8271 18.5195 30.0674 17.9775 30.0674 17.2803V15.3994H29.9268C29.7275 15.7451 29.4785 16.041 29.1797 16.2871C28.8809 16.5332 28.5439 16.7207 28.1689 16.8496C27.7939 16.9727 27.3896 17.0342 26.9561 17.0342C26.1475 17.0342 25.4443 16.8408 24.8467 16.4541C24.2549 16.0615 23.7979 15.5225 23.4756 14.8369C23.1533 14.1514 22.9922 13.3633 22.9922 12.4727V12.4551C22.9922 11.5703 23.1533 10.7852 23.4756 10.0996C23.8037 9.4082 24.2666 8.86621 24.8643 8.47363C25.4619 8.0752 26.1709 7.87598 26.9912 7.87598C27.4365 7.87598 27.8467 7.94629 28.2217 8.08691C28.5967 8.22754 28.9277 8.42676 29.2148 8.68457C29.5078 8.94238 29.751 9.25 29.9443 9.60742H30.0498V8.04297H31.5791V17.3594C31.5791 18.0625 31.4062 18.6748 31.0605 19.1963C30.7207 19.7178 30.2344 20.1221 29.6016 20.4092C28.9688 20.6963 28.2246 20.8398 27.3691 20.8398ZM27.29 15.6807C27.876 15.6807 28.377 15.5459 28.793 15.2764C29.209 15.001 29.5283 14.623 29.751 14.1426C29.9795 13.6621 30.0938 13.1055 30.0938 12.4727V12.4551C30.0938 11.8281 29.9795 11.2715 29.751 10.7852C29.5283 10.2988 29.209 9.91797 28.793 9.64258C28.377 9.36719 27.876 9.22949 27.29 9.22949C26.71 9.22949 26.2148 9.36719 25.8047 9.64258C25.4004 9.91797 25.0898 10.2988 24.873 10.7852C24.6621 11.2715 24.5566 11.8281 24.5566 12.4551V12.4727C24.5566 13.1055 24.6621 13.6621 24.873 14.1426C25.0898 14.623 25.4004 15.001 25.8047 15.2764C26.2148 15.5459 26.71 15.6807 27.29 15.6807ZM38.2412 17.667C37.3389 17.667 36.5654 17.4678 35.9209 17.0693C35.2764 16.6709 34.7783 16.1084 34.4268 15.3818C34.0811 14.6553 33.9082 13.7969 33.9082 12.8066V12.7979C33.9082 11.8193 34.0811 10.9609 34.4268 10.2227C34.7783 9.48438 35.2705 8.91016 35.9033 8.5C36.542 8.08398 37.2891 7.87598 38.1445 7.87598C39.0059 7.87598 39.7441 8.0752 40.3594 8.47363C40.9805 8.86621 41.4551 9.41992 41.7832 10.1348C42.1172 10.8438 42.2842 11.6699 42.2842 12.6133V13.2109H34.6992V11.9893H41.502L40.7461 13.1055V12.499C40.7461 11.7549 40.6348 11.1426 40.4121 10.6621C40.1895 10.1816 39.8818 9.82422 39.4893 9.58984C39.0967 9.35547 38.6455 9.23828 38.1357 9.23828C37.626 9.23828 37.1719 9.36133 36.7734 9.60742C36.375 9.85352 36.0586 10.2197 35.8242 10.7061C35.5898 11.1924 35.4727 11.79 35.4727 12.499V13.1055C35.4727 13.7793 35.5869 14.3535 35.8154 14.8281C36.0439 15.3027 36.3662 15.6689 36.7822 15.9268C37.2041 16.1787 37.7021 16.3047 38.2764 16.3047C38.7041 16.3047 39.0762 16.2461 39.3926 16.1289C39.709 16.0117 39.9697 15.8623 40.1748 15.6807C40.3799 15.499 40.5234 15.3115 40.6055 15.1182L40.6406 15.0391H42.1699L42.1523 15.1094C42.0703 15.4375 41.9238 15.7539 41.7129 16.0586C41.5078 16.3574 41.2383 16.6299 40.9043 16.876C40.5762 17.1162 40.1895 17.3096 39.7441 17.4561C39.2988 17.5967 38.7979 17.667 38.2412 17.667Z" fill="#4A5565"/>
<g filter="url(#filter0_d_5_4)">
<path d="M45.4062 17.5V8.04297H46.9355V9.44922H47.0674C47.249 8.95117 47.5537 8.56445 47.9814 8.28906C48.415 8.01367 48.9482 7.87598 49.5811 7.87598C49.7275 7.87598 49.8711 7.88477 50.0117 7.90234C50.1582 7.91406 50.2666 7.92578 50.3369 7.9375V9.42285C50.1846 9.39355 50.0322 9.37305 49.8799 9.36133C49.7334 9.34375 49.5752 9.33496 49.4053 9.33496C48.9248 9.33496 48.4971 9.43164 48.1221 9.625C47.7529 9.8125 47.4629 10.0791 47.252 10.4248C47.041 10.7705 46.9355 11.1748 46.9355 11.6377V17.5H45.4062Z" fill="#4A5565"/>
</g>
<path d="M56.291 17.667C55.4004 17.667 54.627 17.4707 53.9707 17.0781C53.3203 16.6797 52.8164 16.1143 52.459 15.3818C52.1074 14.6494 51.9316 13.7822 51.9316 12.7803V12.7627C51.9316 11.749 52.1074 10.8789 52.459 10.1523C52.8164 9.41992 53.3203 8.85742 53.9707 8.46484C54.627 8.07227 55.4004 7.87598 56.291 7.87598C57.1934 7.87598 57.9697 8.07227 58.6201 8.46484C59.2705 8.85742 59.7715 9.41992 60.123 10.1523C60.4805 10.8789 60.6592 11.749 60.6592 12.7627V12.7803C60.6592 13.7881 60.4805 14.6582 60.123 15.3906C59.7715 16.1172 59.2705 16.6797 58.6201 17.0781C57.9697 17.4707 57.1934 17.667 56.291 17.667ZM56.291 16.3135C56.8887 16.3135 57.3955 16.1729 57.8115 15.8916C58.2275 15.6104 58.5439 15.209 58.7607 14.6875C58.9834 14.1602 59.0947 13.5244 59.0947 12.7803V12.7627C59.0947 12.0127 58.9834 11.374 58.7607 10.8467C58.5439 10.3193 58.2275 9.91797 57.8115 9.64258C57.3955 9.36719 56.8887 9.22949 56.291 9.22949C55.6992 9.22949 55.1953 9.36719 54.7793 9.64258C54.3633 9.91797 54.0439 10.3193 53.8213 10.8467C53.6045 11.374 53.4961 12.0127 53.4961 12.7627V12.7803C53.4961 13.5244 53.6045 14.1602 53.8213 14.6875C54.0439 15.209 54.3633 15.6104 54.7793 15.8916C55.1953 16.1729 55.6992 16.3135 56.291 16.3135ZM66.8906 20.8398C66.1289 20.8398 65.4639 20.7314 64.8955 20.5146C64.3271 20.3037 63.873 20.002 63.5332 19.6094C63.1992 19.2227 62.9912 18.7715 62.9092 18.2559L62.918 18.2471H64.5L64.5088 18.2559C64.5967 18.6133 64.8457 18.9062 65.2559 19.1348C65.666 19.3691 66.2109 19.4863 66.8906 19.4863C67.7344 19.4863 68.3936 19.293 68.8682 18.9062C69.3486 18.5195 69.5889 17.9775 69.5889 17.2803V15.3994H69.4482C69.249 15.7451 69 16.041 68.7012 16.2871C68.4023 16.5332 68.0654 16.7207 67.6904 16.8496C67.3154 16.9727 66.9111 17.0342 66.4775 17.0342C65.6689 17.0342 64.9658 16.8408 64.3682 16.4541C63.7764 16.0615 63.3193 15.5225 62.9971 14.8369C62.6748 14.1514 62.5137 13.3633 62.5137 12.4727V12.4551C62.5137 11.5703 62.6748 10.7852 62.9971 10.0996C63.3252 9.4082 63.7881 8.86621 64.3857 8.47363C64.9834 8.0752 65.6924 7.87598 66.5127 7.87598C66.958 7.87598 67.3682 7.94629 67.7432 8.08691C68.1182 8.22754 68.4492 8.42676 68.7363 8.68457C69.0293 8.94238 69.2725 9.25 69.4658 9.60742H69.5713V8.04297H71.1006V17.3594C71.1006 18.0625 70.9277 18.6748 70.582 19.1963C70.2422 19.7178 69.7559 20.1221 69.123 20.4092C68.4902 20.6963 67.7461 20.8398 66.8906 20.8398ZM66.8115 15.6807C67.3975 15.6807 67.8984 15.5459 68.3145 15.2764C68.7305 15.001 69.0498 14.623 69.2725 14.1426C69.501 13.6621 69.6152 13.1055 69.6152 12.4727V12.4551C69.6152 11.8281 69.501 11.2715 69.2725 10.7852C69.0498 10.2988 68.7305 9.91797 68.3145 9.64258C67.8984 9.36719 67.3975 9.22949 66.8115 9.22949C66.2314 9.22949 65.7363 9.36719 65.3262 9.64258C64.9219 9.91797 64.6113 10.2988 64.3945 10.7852C64.1836 11.2715 64.0781 11.8281 64.0781 12.4551V12.4727C64.0781 13.1055 64.1836 13.6621 64.3945 14.1426C64.6113 14.623 64.9219 15.001 65.3262 15.2764C65.7363 15.5459 66.2314 15.6807 66.8115 15.6807ZM77.7627 17.667C76.8604 17.667 76.0869 17.4678 75.4424 17.0693C74.7979 16.6709 74.2998 16.1084 73.9482 15.3818C73.6025 14.6553 73.4297 13.7969 73.4297 12.8066V12.7979C73.4297 11.8193 73.6025 10.9609 73.9482 10.2227C74.2998 9.48438 74.792 8.91016 75.4248 8.5C76.0635 8.08398 76.8105 7.87598 77.666 7.87598C78.5273 7.87598 79.2656 8.0752 79.8809 8.47363C80.502 8.86621 80.9766 9.41992 81.3047 10.1348C81.6387 10.8438 81.8057 11.6699 81.8057 12.6133V13.2109H74.2207V11.9893H81.0234L80.2676 13.1055V12.499C80.2676 11.7549 80.1562 11.1426 79.9336 10.6621C79.7109 10.1816 79.4033 9.82422 79.0107 9.58984C78.6182 9.35547 78.167 9.23828 77.6572 9.23828C77.1475 9.23828 76.6934 9.36133 76.2949 9.60742C75.8965 9.85352 75.5801 10.2197 75.3457 10.7061C75.1113 11.1924 74.9941 11.79 74.9941 12.499V13.1055C74.9941 13.7793 75.1084 14.3535 75.3369 14.8281C75.5654 15.3027 75.8877 15.6689 76.3037 15.9268C76.7256 16.1787 77.2236 16.3047 77.7979 16.3047C78.2256 16.3047 78.5977 16.2461 78.9141 16.1289C79.2305 16.0117 79.4912 15.8623 79.6963 15.6807C79.9014 15.499 80.0449 15.3115 80.127 15.1182L80.1621 15.0391H81.6914L81.6738 15.1094C81.5918 15.4375 81.4453 15.7539 81.2344 16.0586C81.0293 16.3574 80.7598 16.6299 80.4258 16.876C80.0977 17.1162 79.7109 17.3096 79.2656 17.4561C78.8203 17.5967 78.3193 17.667 77.7627 17.667ZM84.1523 17.5V8.04297H85.6816V9.44922H85.8135C85.9951 8.95117 86.2998 8.56445 86.7275 8.28906C87.1611 8.01367 87.6943 7.87598 88.3271 7.87598C88.4736 7.87598 88.6172 7.88477 88.7578 7.90234C88.9043 7.91406 89.0127 7.92578 89.083 7.9375V9.42285C88.9307 9.39355 88.7783 9.37305 88.626 9.36133C88.4795 9.34375 88.3213 9.33496 88.1514 9.33496C87.6709 9.33496 87.2432 9.43164 86.8682 9.625C86.499 9.8125 86.209 10.0791 85.998 10.4248C85.7871 10.7705 85.6816 11.1748 85.6816 11.6377V17.5H84.1523Z" fill="url(#paint0_linear_5_4)"/>
<path d="M94.6582 17.667C93.9551 17.667 93.334 17.5615 92.7949 17.3506C92.2559 17.1338 91.8223 16.832 91.4941 16.4453C91.1719 16.0527 90.9814 15.5957 90.9229 15.0742H92.4873C92.6162 15.4727 92.8652 15.792 93.2344 16.0322C93.6094 16.2725 94.1016 16.3926 94.7109 16.3926C95.1328 16.3926 95.5049 16.3311 95.8271 16.208C96.1553 16.0791 96.4102 15.9062 96.5918 15.6895C96.7793 15.4727 96.873 15.2207 96.873 14.9336V14.916C96.873 14.5938 96.7441 14.3213 96.4863 14.0986C96.2344 13.8701 95.8184 13.6855 95.2383 13.5449L93.7705 13.1934C93.1787 13.0527 92.6924 12.8711 92.3115 12.6484C91.9307 12.4199 91.6494 12.1416 91.4678 11.8135C91.2861 11.4795 91.1953 11.0869 91.1953 10.6357V10.627C91.1953 10.0996 91.3477 9.62793 91.6523 9.21191C91.9629 8.7959 92.3818 8.4707 92.9092 8.23633C93.4424 7.99609 94.043 7.87598 94.7109 7.87598C95.373 7.87598 95.959 7.98145 96.4688 8.19238C96.9844 8.39746 97.3975 8.69336 97.708 9.08008C98.0244 9.46094 98.2148 9.90625 98.2793 10.416V10.4248H96.7852H96.7764C96.6826 10.0439 96.457 9.73633 96.0996 9.50195C95.7422 9.26758 95.2764 9.15039 94.7021 9.15039C94.3271 9.15039 93.9932 9.21191 93.7002 9.33496C93.4131 9.45215 93.1846 9.61621 93.0146 9.82715C92.8447 10.0322 92.7598 10.2754 92.7598 10.5566V10.5742C92.7598 10.7852 92.8154 10.9727 92.9268 11.1367C93.0381 11.3008 93.208 11.4443 93.4365 11.5674C93.6709 11.6904 93.9727 11.7988 94.3418 11.8926L95.8008 12.2441C96.6914 12.4609 97.3535 12.7715 97.7871 13.1758C98.2207 13.5801 98.4375 14.1221 98.4375 14.8018V14.8193C98.4375 15.376 98.2705 15.8711 97.9365 16.3047C97.6084 16.7324 97.1572 17.0664 96.583 17.3066C96.0146 17.5469 95.373 17.667 94.6582 17.667Z" fill="#4A5565"/>
<defs>
<filter id="filter0_d_5_4" x="45.4062" y="6.87598" width="7.93066" height="11.624" filterUnits="userSpaceOnUse" color-interpolation-filters="sRGB">
<feFlood flood-opacity="0" result="BackgroundImageFix"/>
<feColorMatrix in="SourceAlpha" type="matrix" values="0 0 0 0 0 0 0 0 0 0 0 0 0 0 0 0 0 0 127 0" result="hardAlpha"/>
<feOffset dx="2"/>
<feGaussianBlur stdDeviation="0.5"/>
<feComposite in2="hardAlpha" operator="out"/>
<feColorMatrix type="matrix" values="0 0 0 0 0.556731 0 0 0 0 0.104387 0 0 0 0 0.526575 0 0 0 1 0"/>
<feBlend mode="normal" in2="BackgroundImageFix" result="effect1_dropShadow_5_4"/>
<feBlend mode="normal" in="SourceGraphic" in2="effect1_dropShadow_5_4" result="shape"/>
</filter>
<linearGradient id="paint0_linear_5_4" x1="90" y1="11" x2="51" y2="11" gradientUnits="userSpaceOnUse">
<stop stop-color="#C283BD"/>
<stop offset="1" stop-color="#8E1B86"/>
</linearGradient>
</defs>
</svg>
